<?xml version="1.0" encoding="UTF-8"?>
<svg width="128px" height="128px" viewBox="0 0 128 128" version="1.1" xmlns="http://www.w3.org/2000/svg" xmlns:xlink="http://www.w3.org/1999/xlink">
    <title>1</title>
    <g id="Page-1" stroke="none" stroke-width="1" fill="none" fill-rule="evenodd">
        <g id="Detail" transform="translate(-224.000000, -137.000000)" fill="#000000" fill-rule="nonzero">
            <path d="M288,265 C296.77915,265 305.03155,263.320988 312.757202,259.962963 C320.482853,256.604938 327.286694,251.984911 333.168724,246.102881 C339.050754,240.22085 343.659808,233.427984 346.995885,225.72428 C350.331962,218.020576 352,209.77915 352,201 C352,192.22085 350.331962,183.979424 346.995885,176.27572 C343.659808,168.572016 339.039781,161.768176 333.135802,155.864198 C327.231824,149.960219 320.41701,145.340192 312.691358,142.004115 C304.965706,138.668038 296.713306,137 287.934156,137 C279.242798,137 271.034294,138.668038 263.308642,142.004115 C255.58299,145.340192 248.768176,149.960219 242.864198,155.864198 C236.960219,161.768176 232.340192,168.572016 229.004115,176.27572 C225.668038,183.979424 224,192.22085 224,201 C224,209.77915 225.679012,218.020576 229.037037,225.72428 C232.395062,233.427984 237.015089,240.22085 242.897119,246.102881 C248.77915,251.984911 255.58299,256.604938 263.308642,259.962963 C271.034294,263.320988 279.264746,265 288,265 Z M288,253.213992 C280.801097,253.213992 274.041152,251.864198 267.720165,249.164609 C261.399177,246.465021 255.857339,242.733882 251.09465,237.971193 C246.331962,233.208505 242.611797,227.666667 239.934156,221.345679 C237.256516,215.024691 235.917695,208.242798 235.917695,201 C235.917695,193.801097 237.256516,187.041152 239.934156,180.720165 C242.611797,174.399177 246.331962,168.846365 251.09465,164.061728 C255.857339,159.277092 261.388203,155.534979 267.687243,152.835391 C273.986283,150.135802 280.735254,148.786008 287.934156,148.786008 C295.22085,148.786008 302.013717,150.135802 308.312757,152.835391 C314.611797,155.534979 320.153635,159.277092 324.938272,164.061728 C329.722908,168.846365 333.465021,174.399177 336.164609,180.720165 C338.864198,187.041152 340.213992,193.801097 340.213992,201 C340.257888,208.242798 338.919067,215.024691 336.197531,221.345679 C333.475995,227.666667 329.744856,233.208505 325.004115,237.971193 C320.263374,242.733882 314.73251,246.465021 308.411523,249.164609 C302.090535,251.864198 295.286694,253.213992 288,253.213992 Z M288,241.032922 C289.75583,241.032922 291.160494,240.462277 292.213992,239.320988 C293.26749,238.179698 293.794239,236.709191 293.794239,234.909465 L293.794239,167.156379 C293.794239,165.312757 293.26749,163.820302 292.213992,162.679012 C291.160494,161.537723 289.75583,160.967078 288,160.967078 C286.288066,160.967078 284.894376,161.537723 283.81893,162.679012 C282.743484,163.820302 282.205761,165.312757 282.205761,167.156379 L282.205761,234.909465 C282.205761,236.709191 282.743484,238.179698 283.81893,239.320988 C284.894376,240.462277 286.288066,241.032922 288,241.032922 Z" id="1" transform="translate(288.000000, 201.000000) rotate(45.000000) translate(-288.000000, -201.000000) "></path>
        </g>
    </g>
</svg>